# xmcd
#
# Track frame offsets:
#	150
#	20979
#	34150
#	49285
#	68816
#
# Disc length: 1134 seconds
#
# Revision: 1
# Processed by: cddbd v1.5.2PL0 Copyright (c) Steve Scherf et al.
# Submitted via: audiograbber 1.83.01
#
DISCID=45046c05
DTITLE=BIG*DIG - Goldrausch
DYEAR=2007
DGENRE=Country
TTITLE0=I don't feel like dancin'
TTITLE1=Chasey Lain
TTITLE2=Bobby Brown
TTITLE3=Everyone 's a winner
TTITLE4=Horny
EXTD=www.bigdig.de
EXTT0=
EXTT1=
EXTT2=
EXTT3=
EXTT4=
PLAYORDER=
